<?xml version="1.0" encoding="utf-8"?>
<!-- Generator: Adobe Illustrator 22.0.1, SVG Export Plug-In . SVG Version: 6.00 Build 0)  -->
<svg version="1.1" xmlns="http://www.w3.org/2000/svg" xmlns:xlink="http://www.w3.org/1999/xlink" x="0px" y="0px"
	 viewBox="0 0 100 100" enable-background="new 0 0 100 100" xml:space="preserve">
<g id="Broda">
	<path stroke="#000000" stroke-miterlimit="10" d="M62.3,83.8l-12.5-0.3l-12.5,0.3c-0.7,4.5-1.4,9.1-2.1,13.6c0.8-1,1.7-2,2.5-3
		c0.4-0.5,1.2-1.1,1.7-0.7c0.4,0.3,0.3,1,0.3,1.5c-0.1,0.5,0.1,1.3,0.7,1.3c0.3,0,0.5-0.2,0.6-0.4c0.4-0.4,0.7-0.7,1.1-1.1
		c0.1-0.1,0.3-0.3,0.5-0.3c0.4-0.1,0.8,0.4,0.8,0.8c0.1,0.4,0.1,0.9,0.4,1.2c0.5,0.5,1.3,0,1.9-0.5c0.5-0.4,1.4-0.8,1.8-0.3
		c0.2,0.3,0.5,0.7,0.7,0.9c0.4,0.6,1.2,1,1.6,1c0.6,0,1.1-0.5,1.5-1.1c0.2-0.3,0.6-0.6,0.8-0.9c0.4-0.5,1.3-0.1,1.8,0.3
		c0.5,0.4,1.3,0.9,1.9,0.5c0.3-0.3,0.3-0.8,0.4-1.2c0.1-0.4,0.4-0.9,0.8-0.8c0.2,0,0.3,0.2,0.5,0.3c0.4,0.4,0.7,0.7,1.1,1.1
		c0.2,0.2,0.4,0.4,0.6,0.4c0.5,0,0.8-0.7,0.7-1.3c-0.1-0.5-0.2-1.2,0.3-1.5c0.5-0.4,1.3,0.2,1.7,0.7c0.8,1,1.7,2,2.5,3
		C63.6,92.9,63,88.3,62.3,83.8z"/>
</g>
<g id="Uszy">
	<path fill="none" stroke="#000000" stroke-width="2" stroke-miterlimit="10" d="M28.5,46.8c-3.2-1.7-4.6-5.9-5.7-9.7
		c-2-7-4.1-14.4-2.6-21.6c0.5-2.1,1.2-4.2,2-6.2c0.7-1.8,1.4-3.7,2.1-5.5C24.4,3.5,24.6,3,25,3c0.3,0,0.5,0.2,0.7,0.4
		c2.4,2.5,3.7,6.1,5.9,8.8c1.6,1.9,3.5,3.4,4.8,5.6c0.9,1.5,1.4,3.3,1.8,5.1c1.1,4.7,1.8,9.4,2.1,14.3"/>
	<g>
		<g>
			<path d="M67.7,43.5c4.7-5.6,7.3-13,7.2-20.3c-0.1-2.8-0.6-5.7-2.6-7.6c-0.4,8-6.6,17.8-11,23.3"/>
			<g>
				<path d="M68.8,44.5c5.9-7.4,11.8-21.7,4.6-30c-0.9-1.1-2.5-0.1-2.6,1.1c-0.8,8.2-5.6,15.9-10.6,22.2c-1.2,1.5,0.9,3.6,2.1,2.1
					c5.5-7,10.6-15.3,11.5-24.4c-0.9,0.4-1.7,0.7-2.6,1.1c5.9,6.9,0.1,19.9-4.6,25.8C65.5,43.9,67.6,46,68.8,44.5L68.8,44.5z"/>
			</g>
		</g>
		<path fill="none" stroke="#000000" stroke-width="2" stroke-miterlimit="10" d="M70.8,46.8c3.2-1.7,4.6-5.9,5.7-9.7
			c2-7,4.1-14.4,2.6-21.6c-0.5-2.1-1.2-4.2-2-6.2c-0.7-1.8-1.4-3.7-2.1-5.5C74.9,3.5,74.7,3,74.3,3c-0.3,0-0.5,0.2-0.7,0.4
			c-2.4,2.5-3.7,6.1-5.9,8.8c-1.6,1.9-3.5,3.4-4.8,5.6c-0.9,1.5-1.4,3.3-1.8,5.1c-1.1,4.7-1.8,9.4-2.1,14.3"/>
	</g>
	<g>
		<path d="M31.6,43.5c-4.7-5.6-7.3-13-7.2-20.3c0.1-2.8,0.6-5.7,2.6-7.6c0.4,8,6.6,17.8,11,23.3"/>
		<g>
			<path d="M32.7,42.4c-4.7-5.9-10.5-18.9-4.6-25.8c-0.9-0.4-1.7-0.7-2.6-1.1c0.9,9.1,6,17.3,11.5,24.4c1.2,1.5,3.3-0.6,2.1-2.1
				c-5-6.3-9.8-14.1-10.6-22.2c-0.1-1.2-1.6-2.1-2.6-1.1c-7.2,8.4-1.3,22.6,4.6,30C31.7,46,33.9,43.9,32.7,42.4L32.7,42.4z"/>
		</g>
	</g>
</g>
<g id="Mordka">
	<path fill="#FFFFFF" stroke="#000000" stroke-miterlimit="10" d="M75.6,63c0-0.2,0-0.3,0-0.5c0-0.4,0-0.7,0-1.1
		c0-14.3-11.6-25.9-25.9-25.9c0,0-0.1,0-0.1,0c0,0-0.1,0-0.1,0c-14.3,0-25.9,11.6-25.9,25.9c0,0.4,0,0.7,0,1.1c0,0.2,0,0.3,0,0.5
		C16,80.2,34.4,81.7,37.1,84.1c6.2,5.5,3.5,7.5,11.5,7.7c0.1,0,0.3,0,0.4,0c0.2,0,0.4,0,0.7,0c0.2,0,0.4,0,0.7,0c0.1,0,0.3,0,0.4,0
		c8-0.2,5.5-2.2,11.7-7.7C65.1,81.7,83.3,80.2,75.6,63z"/>
</g>
<g id="Oko">
	<ellipse fill="#FFFFFF" stroke="#000000" stroke-miterlimit="10" cx="49.7" cy="53.2" rx="4.4" ry="8.8"/>
	<ellipse stroke="#000000" stroke-miterlimit="10" cx="49.7" cy="53.7" rx="4.4" ry="6.1"/>
</g>
<g id="Nos">
	<g>
		<path fill="#282828" stroke="#000000" stroke-miterlimit="10" d="M49.6,73.9c0.2,0.2-2.6-1.7-2.8-3c0-0.2,0-0.4,0.1-0.6
			c0.2-0.2,0.5-0.2,0.7-0.2c1.6,0,3.1,0.1,4.7,0.1"/>
		<path fill="#282828" stroke="#000000" stroke-miterlimit="10" d="M49.7,73.8c-0.6,0.4,2.6-1.6,2.8-3c0-0.2,0-0.4-0.1-0.6
			c-0.2-0.2-0.5-0.2-0.7-0.2c-1.6,0-3.1,0.1-4.7,0.1"/>
	</g>
</g>
<g id="Wąsy">
	<g>
		<circle stroke="#000000" stroke-miterlimit="10" cx="25.8" cy="69.4" r="0.6"/>
		<circle stroke="#000000" stroke-miterlimit="10" cx="31.9" cy="67.7" r="0.6"/>
		<circle stroke="#000000" stroke-miterlimit="10" cx="30" cy="74.7" r="0.6"/>
	</g>
	<g>
		<g>
			<circle stroke="#000000" stroke-miterlimit="10" cx="73.5" cy="69.5" r="0.6"/>
			<circle stroke="#000000" stroke-miterlimit="10" cx="67.4" cy="67.7" r="0.6"/>
			<circle stroke="#000000" stroke-miterlimit="10" cx="69.3" cy="74.7" r="0.6"/>
		</g>
		<g>
			<path fill="none" stroke="#000000" stroke-width="0.5" stroke-miterlimit="10" d="M71,66.9c2.2-1.4,8.2-1.9,11.9-1.7
				c5.8,0.2,9.7,2.8,12.5,4.3"/>
			<path fill="none" stroke="#000000" stroke-width="0.5" stroke-miterlimit="10" d="M68.3,70.6c2.2-1.4,8.2-1.9,11.9-1.7
				c5.8,0.2,9.7,2.8,12.5,4.3"/>
			<path fill="none" stroke="#000000" stroke-width="0.5" stroke-miterlimit="10" d="M71,72.6c1.9-0.8,6.6-0.4,9.4,0.2
				c4.5,0.9,7.1,3.4,9.1,4.9"/>
		</g>
	</g>
	<g>
		<path fill="none" stroke="#000000" stroke-width="0.5" stroke-miterlimit="10" d="M28.3,66.9c-2.2-1.4-8.2-1.9-11.9-1.7
			c-5.8,0.2-9.7,2.8-12.5,4.3"/>
		<path fill="none" stroke="#000000" stroke-width="0.5" stroke-miterlimit="10" d="M31,70.5c-2.2-1.4-8.2-1.9-11.9-1.7
			c-5.8,0.2-9.7,2.8-12.5,4.3"/>
		<path fill="none" stroke="#000000" stroke-width="0.5" stroke-miterlimit="10" d="M28.3,72.6c-1.9-0.8-6.6-0.4-9.4,0.2
			c-4.5,0.9-7.1,3.4-9.1,4.9"/>
	</g>
</g>
<g id="Zęby">
	<path fill="none" stroke="#000000" stroke-width="0.75" stroke-miterlimit="10" d="M46.1,76.3c-0.6,1.8-1.2,3.5-1.8,5.3
		c0,0,0,0.1,0,0.1c0,0,0.1,0.1,0.1,0.1c1.4,0.7,3,1,4.5,1c0.2-1.8,0.3-3.6,0.4-5.4"/>
	<path fill="none" stroke="#000000" stroke-width="0.75" stroke-miterlimit="10" d="M53.2,76.3c0.6,1.8,1.2,3.5,1.8,5.3
		c0,0,0,0.1,0,0.1c0,0-0.1,0.1-0.1,0.1c-1.4,0.7-3,1-4.5,1c-0.2-1.8-0.3-3.6-0.4-5.4"/>
</g>
</svg>
