<svg xmlns="http://www.w3.org/2000/svg" viewBox="0 0 83.18 88.24"><defs><style>.cls-1,.cls-2,.cls-3,.cls-4,.cls-5,.cls-6{stroke:#000;stroke-miterlimit:10;}.cls-2,.cls-5,.cls-6{fill:none;}.cls-2{stroke-width:2px;}.cls-3{fill:#fff;}.cls-4{fill:#282828;}.cls-5{stroke-width:0.5px;}.cls-6{stroke-width:0.75px;}</style></defs><title>rabbit</title><g id="Broda"><path class="cls-1" d="M61.43,84.25,50.07,84l-11.36.25q-.95,6.15-1.88,12.31l2.27-2.69c.39-.47,1-1,1.54-.61s.3.91.24,1.4.13,1.18.63,1.15a1,1,0,0,0,.58-.36l1-1a.87.87,0,0,1,.41-.28c.39-.09.69.36.76.76s.07.84.38,1.1c.48.42,1.19,0,1.68-.43s1.27-.76,1.67-.27a10.13,10.13,0,0,1,.61.85,2.19,2.19,0,0,0,1.47.94,1.94,1.94,0,0,0,1.36-1c.17-.26.52-.55.72-.79.4-.49,1.19-.13,1.67.27s1.2.85,1.68.43c.31-.26.31-.71.38-1.1s.37-.85.76-.76a.87.87,0,0,1,.41.28l1,1a1,1,0,0,0,.58.36c.5,0,.7-.65.63-1.15s-.16-1.1.24-1.4,1.15.14,1.54.61l2.27,2.69Q62.36,90.41,61.43,84.25Z" transform="translate(-8.41 -10)"/></g><g id="Uszy"><path class="cls-2" d="M30.81,50.73c-2.87-1.52-4.15-5.34-5.15-8.8C23.81,35.6,22,28.84,23.32,22.35a38.83,38.83,0,0,1,1.79-5.6l1.86-5c.13-.35.32-.75.65-.78a.81.81,0,0,1,.59.34c2.18,2.25,3.39,5.49,5.37,8C35,21.07,36.79,22.43,38,24.42A17.07,17.07,0,0,1,39.62,29,70.9,70.9,0,0,1,41.53,42" transform="translate(-8.41 -10)"/><path d="M66.39,47.69a28.15,28.15,0,0,0,6.51-18.4c-.05-2.5-.54-5.2-2.36-6.91-.4,7.21-6,16.12-10,21.12" transform="translate(-8.41 -10)"/><path d="M67.45,48.75c5.45-6.91,10.62-19.61,4.15-27.43-.91-1.11-2.44-.09-2.56,1.06-.73,7.42-5.08,14.3-9.58,20.06-1.17,1.5.94,3.64,2.13,2.12,5-6.45,9.63-13.87,10.45-22.18l-2.56,1.06c5.24,6.34.1,17.8-4.15,23.19-1.19,1.5.92,3.63,2.12,2.12Z" transform="translate(-8.41 -10)"/><path class="cls-2" d="M69.19,50.73c2.87-1.52,4.15-5.34,5.15-8.8,1.85-6.33,3.71-13.09,2.34-19.58a38.83,38.83,0,0,0-1.79-5.6l-1.86-5c-.13-.35-.32-.75-.65-.78a.81.81,0,0,0-.59.34c-2.18,2.25-3.39,5.49-5.37,8C65,21.07,63.21,22.43,62,24.42A17.07,17.07,0,0,0,60.38,29,70.9,70.9,0,0,0,58.47,42" transform="translate(-8.41 -10)"/><path d="M33.64,47.69a28,28,0,0,1-6.51-18.4c.05-2.5.53-5.2,2.35-6.91.41,7.21,6,16.12,10,21.12" transform="translate(-8.41 -10)"/><path d="M34.7,46.63c-4.26-5.4-9.38-16.86-4.16-23.19L28,22.38c.82,8.3,5.42,15.73,10.46,22.18,1.19,1.52,3.3-.62,2.12-2.12C36.06,36.68,31.71,29.8,31,22.38c-.11-1.15-1.64-2.17-2.56-1.06C22,29.14,27.13,41.84,32.58,48.75c1.19,1.51,3.3-.62,2.12-2.12Z" transform="translate(-8.41 -10)"/></g><g id="Mordka"><path class="cls-3" d="M73.55,65.42c0-.14,0-.28,0-.42,0-.33,0-.66,0-1A23.5,23.5,0,0,0,50.1,40.5h-.21A23.5,23.5,0,0,0,26.39,64c0,.34,0,.67,0,1,0,.14,0,.28,0,.42C19.53,81,36.19,82.37,38.6,84.5c5.61,5,3.21,6.77,10.43,7l.36,0H50.6l.35,0c7.23-.21,5-2,10.65-7C64,82.37,80.46,81,73.55,65.42Z" transform="translate(-8.41 -10)"/></g><g id="Oko"><ellipse class="cls-3" cx="41.59" cy="46.5" rx="4" ry="8"/><ellipse class="cls-1" cx="41.59" cy="47" rx="4" ry="5.5"/></g><g id="Nos"><path class="cls-4" d="M49.93,75.26c.17.16-2.36-1.53-2.51-2.75a.69.69,0,0,1,.1-.51.89.89,0,0,1,.68-.19l4.25.09" transform="translate(-8.41 -10)"/><path class="cls-4" d="M50.07,75.21c-.54.39,2.34-1.47,2.51-2.7a.65.65,0,0,0-.11-.51.85.85,0,0,0-.67-.19l-4.25.09" transform="translate(-8.41 -10)"/></g><g id="Wąsy"><circle class="cls-1" cx="19.97" cy="61.23" r="0.59"/><circle class="cls-1" cx="25.49" cy="59.67" r="0.59"/><circle class="cls-1" cx="23.78" cy="66" r="0.59"/><circle class="cls-1" cx="63.21" cy="61.24" r="0.59"/><circle class="cls-1" cx="57.69" cy="59.67" r="0.59"/><circle class="cls-1" cx="59.4" cy="66.01" r="0.59"/><path class="cls-5" d="M69.35,68.93c2-1.23,7.45-1.69,10.75-1.57,5.27.2,8.75,2.54,11.38,3.88" transform="translate(-8.41 -10)"/><path class="cls-5" d="M66.91,72.23c2-1.23,7.44-1.68,10.75-1.56,5.26.19,8.75,2.54,11.38,3.87" transform="translate(-8.41 -10)"/><path class="cls-5" d="M69.37,74.07c1.73-.68,6-.34,8.51.18,4,.83,6.43,3.09,8.28,4.46" transform="translate(-8.41 -10)"/><path class="cls-5" d="M30.65,68.92c-2-1.23-7.44-1.69-10.75-1.56-5.26.19-8.75,2.54-11.37,3.87" transform="translate(-8.41 -10)"/><path class="cls-5" d="M33.09,72.23c-2-1.23-7.44-1.69-10.75-1.57-5.26.2-8.75,2.54-11.37,3.88" transform="translate(-8.41 -10)"/><path class="cls-5" d="M30.63,74.07c-1.72-.69-6-.35-8.5.17-4,.83-6.43,3.09-8.29,4.46" transform="translate(-8.41 -10)"/></g><g id="Zęby"><path class="cls-6" d="M46.79,77.45l-1.64,4.77a.2.2,0,0,0,0,.13.2.2,0,0,0,.11.09,9.52,9.52,0,0,0,4.1,1c.19-1.63.3-3.26.34-4.89" transform="translate(-8.41 -10)"/><path class="cls-6" d="M53.21,77.45l1.64,4.77a.2.2,0,0,1,0,.13.2.2,0,0,1-.11.09,9.52,9.52,0,0,1-4.1,1c-.19-1.63-.3-3.26-.34-4.89" transform="translate(-8.41 -10)"/></g></svg>